#N canvas 0 23 1440 819 12;
#X obj 25 133 cnv 15 600 120 empty empty TEMPO_(QPM)_&_Clock_Related_Stuff
20 12 0 14 -261682 -4160 0;
#X obj 25 5 cnv 15 600 120 empty empty Initialize 20 12 0 14 -228856
-4160 0;
#X obj 26 256 cnv 15 600 300 empty empty Update_groove_when_a_velocity_is_received
20 12 0 14 -204800 -4160 0;
#X obj 755 219 cnv 15 600 120 empty empty SYNTHESIZER 20 12 0 14 -228856
-4160 0;
#X obj 754 92 cnv 15 600 120 empty empty Recording_Groove 20 12 0 14
-228856 -4160 0;
#X obj 756 343 cnv 15 300 120 empty empty OSC_Components 20 12 0 14
-228856 -4160 0;
#X obj 754 30 cnv 15 600 50 empty empty Code_to_plot_and_playback 20
12 0 14 -262130 -4160 0;
#N canvas 0 23 888 639 metronome_midi_note_out 0;
#X obj 67 170 pack f f;
#X obj 60 120 t f f;
#X obj 65 260 makenote 0 100;
#X obj 72 326 noteout;
#X obj 64 53 inlet;
#X floatatom 323 106 5 0 0 0 - - -;
#X obj 329 177 pack f f;
#X obj 322 127 t f f;
#X obj 327 267 makenote 0 100;
#X obj 334 333 noteout;
#X obj 326 60 inlet;
#X text 115 53 Bar beginning;
#X text 373 58 beats;
#X msg 62 90 100;
#X msg 283 83 100;
#X msg 62 144 1;
#X msg 324 151 2;
#X obj 237 230 r metronome_as_midi_out_channel_init;
#X connect 1 0 15 0;
#X connect 1 1 0 1;
#X connect 1 1 2 1;
#X connect 2 0 3 0;
#X connect 2 1 3 1;
#X connect 4 0 13 0;
#X connect 5 0 7 0;
#X connect 7 0 16 0;
#X connect 7 1 6 1;
#X connect 7 1 8 1;
#X connect 8 0 9 0;
#X connect 8 1 9 1;
#X connect 10 0 14 0;
#X connect 13 0 1 0;
#X connect 14 0 5 0;
#X connect 15 0 0 0;
#X connect 15 0 2 0;
#X connect 16 0 6 0;
#X connect 16 0 8 0;
#X connect 17 0 9 2;
#X connect 17 0 3 2;
#X restore 400 217 pd metronome_midi_note_out;
#X obj 410 193 r metronome_beat_trigger;
#X obj 388 170 r metronome_measure_trigger;
#X text 63 159 Master Clock;
#X text 362 134 sends midi note 1 and 2 for;
#X text 361 149 beat locations to manually sync daw;
#X text 36 289 Whenever a note is played \, the velocity and utimings
are updated at their corresponding time-steps (for an event to be sent
out to python via osc the values of the vel and utime sliders should
be changed rather than the groove plot - in other words \, the groove
plot just visualizes the groove, f 84;
#X text 982 32 reads the voice by voice generated drums (defined and
tracked in res/see_generated_pattern) and sends out (via midi out drum_out_channel)
;
#X text 949 120 Use numbers 1 to 9 (low to hi) to play a groove using
keyboard (increase groove_volume on gui to hear the sound);
#X obj 52 71 ppq_setter;
#X obj 390 266 update_on_new_groove_event;
#X obj 785 187 midi_in;
#X obj 785 157 update_slider_for_event;
#X obj 784 126 keyboard_interface;
#X obj 771 54 midi_out_drums;
#X obj 762 402 process_received_generated_notes;
#X obj 769 433 scale_groove_vels;
#X obj 968 371 osc_receiver;
#X obj 761 377 send_osc_messages_to_py;
#X text 159 194 clock and midi notes for clock;
#X text 165 211 are only sent via channel 16;
#X obj 51 36 initialize_2;
#X floatatom 70 201 5 0 0 0 - - -;
#X obj 70 222 s playback_pos;
#X obj 70 179 clock, f 10;
#N canvas 0 28 1522 883 audio_buffer_length 1;
#X obj 80 63 samplerate~;
#X floatatom 80 87 5 0 0 0 - - -;
#X obj 80 43 bng 15 250 50 0 empty empty empty 17 7 0 10 -262144 -1
-1;
#X obj 80 -22 r run;
#X obj 80 124 s sr;
#X obj 155 195 r bpm;
#X obj 98 263 expr $f2/$f3*60;
#X obj 98 195 r sr;
#X obj 155 233 t b f, f 7;
#X obj 100 234 t b f, f 7;
#X obj 547 494 * 4;
#X obj 241 572 s samples_per_16note;
#X obj 240 551 nbx 12 14 -1e+37 1e+37 0 0 empty empty empty 0 -8 0
10 -262144 -1 -1 4725 256;
#X obj 547 562 nbx 12 14 -1e+37 1e+37 0 0 empty empty empty 0 -8 0
10 -262144 -1 -1 75600 256;
#X obj 547 581 s samples_per_bar;
#X obj 723 498 * 8;
#X obj 41 585 s samples_per_quarterBeat;
#X obj 25 545 nbx 5 14 -1e+37 1e+37 0 0 empty empty empty 0 -8 0 10
-262144 -1 -1 18900 256;
#X obj 37 510 div 1;
#X obj 240 530 div 4;
#X obj 553 518 div 1;
#X obj 723 522 div 1;
#X obj 722 548 nbx 12 14 -1e+37 1e+37 0 0 empty empty empty 0 -8 0
10 -262144 -1 -1 151200 256;
#X obj 766 574 s samples_per_2bars;
#X obj 154 17 loadbang;
#X obj 405 568 s samples_per_32note;
#X obj 405 552 nbx 12 14 -1e+37 1e+37 0 0 empty empty empty 0 -8 0
10 -262144 -1 -1 2362 256;
#X obj 405 530 div 8;
#X obj 501 591 r sr;
#X obj 335 596 r sr;
#X obj 413 638 nbx 12 14 -1e+37 1e+37 0 0 empty empty empty 0 -8 0
10 -262144 -1 -1 53.5601 256;
#X obj 251 642 nbx 12 14 -1e+37 1e+37 0 0 empty empty empty 0 -8 0
10 -262144 -1 -1 107.143 256;
#X obj 406 613 expr $f1/$f2*1000;
#X obj 240 618 expr $f1/$f2*1000;
#X obj 409 656 s ms_per_32note;
#X obj 243 661 s ms_per_16note;
#X obj 813 601 r sr;
#X obj 725 648 nbx 12 14 -1e+37 1e+37 0 0 empty empty empty 0 -8 0
10 -262144 -1 -1 3428.57 256;
#X obj 718 623 expr $f1/$f2*1000;
#X obj 721 666 s ms_per_2bars;
#X obj 81 8 sel 1;
#X obj 209 290 change;
#X obj 205 350 t f f f f f;
#X obj 207 320 nbx 5 14 -1e+37 1e+37 0 0 empty empty empty 0 -8 0 10
-262144 -1 -1 18900 256;
#X obj 586 735 pack f f f f f f;
#X obj 725 693 r bpm;
#X obj 681 690 r sr;
#X obj 589 779 s state_params_osc;
#X obj 99 217 nbx 5 14 -1e+37 1e+37 0 0 empty empty empty 0 -8 0 10
-262144 -1 -1 44100 256;
#X obj 155 218 nbx 5 14 -1e+37 1e+37 0 0 empty empty empty 0 -8 0 10
-262144 -1 -1 140 256;
#X connect 0 0 1 0;
#X connect 1 0 4 0;
#X connect 2 0 0 0;
#X connect 3 0 40 0;
#X connect 5 0 49 0;
#X connect 6 0 41 0;
#X connect 7 0 9 0;
#X connect 8 0 6 0;
#X connect 8 1 6 2;
#X connect 9 0 6 0;
#X connect 9 1 6 1;
#X connect 10 0 20 0;
#X connect 12 0 11 0;
#X connect 12 0 33 0;
#X connect 12 0 44 1;
#X connect 13 0 14 0;
#X connect 15 0 21 0;
#X connect 17 0 16 0;
#X connect 17 0 44 0;
#X connect 18 0 17 0;
#X connect 19 0 12 0;
#X connect 20 0 13 0;
#X connect 21 0 22 0;
#X connect 22 0 23 0;
#X connect 22 0 38 0;
#X connect 22 0 44 3;
#X connect 24 0 2 0;
#X connect 26 0 25 0;
#X connect 26 0 32 0;
#X connect 26 0 44 2;
#X connect 27 0 26 0;
#X connect 28 0 32 1;
#X connect 29 0 33 1;
#X connect 30 0 34 0;
#X connect 31 0 35 0;
#X connect 32 0 30 0;
#X connect 33 0 31 0;
#X connect 36 0 38 1;
#X connect 37 0 39 0;
#X connect 38 0 37 0;
#X connect 40 0 2 0;
#X connect 41 0 43 0;
#X connect 42 0 18 0;
#X connect 42 1 19 0;
#X connect 42 2 27 0;
#X connect 42 3 10 0;
#X connect 42 4 15 0;
#X connect 43 0 42 0;
#X connect 44 0 47 0;
#X connect 45 0 44 5;
#X connect 46 0 44 4;
#X connect 49 0 8 0;
#X restore 284 57 pd audio_buffer_length;
#X connect 8 0 7 1;
#X connect 9 0 7 0;
#X connect 29 0 30 0;
#X connect 31 0 29 0;
#X coords 0 819 1 818 800 800 0;
