#N canvas 0 23 1356 825 12;
#X obj 74 148 oscparse;
#X obj 74 177 list trim;
#X obj 74 123 netreceive -u -b 5000;
#X msg 165 102 listen 0;
#X msg 73 101 listen \$1;
#X msg 9 255 \; KICK const 0 \; SNARE const 0 \; HH_CLOSED const 0
\; HH_OPEN const 0 \; TOM_3_LO const 0 \; TOM_2_MID const 0 \; TOM_1_HI
const 0 \; CRASH const 0 \; RIDE const 0 \;;
#X obj 370 272 unpack s s f f f;
#X obj 479 308 s ix;
#X obj 451 328 s offset;
#X obj 424 349 s vel;
#X obj 398 373 s voice;
#X obj 311 421 s update_now;
#X obj 348 389 t b b;
#X obj 420 416 s reset_range;
#X text 55 235 RESETS TABLES;
#X text 333 178 OTHER MESSAGE WHICH IS FOR GENERATED NOTES;
#X obj 70 15 r py2pd_port;
#X obj 184 38 r disconnect_py2pd_connection;
#X floatatom 203 245 5 0 0 0 - - -;
#X obj 184 349 s generation_count;
#X obj 178 270 t f b;
#X obj 200 317 s finished_receiving_generations;
#X obj 75 69 t f b;
#X obj 80 42 change;
#X obj 77 207 route reset_table generation_count tmp_folder;
#X obj 582 266 print;
#X symbolatom 628 565 80 0 0 0 - - -;
#X obj 627 537 symbol;
#X obj 628 593 s tmpFolder;
#X connect 0 0 1 0;
#X connect 1 0 24 0;
#X connect 2 0 0 0;
#X connect 3 0 2 0;
#X connect 4 0 2 0;
#X connect 6 0 12 0;
#X connect 6 1 10 0;
#X connect 6 2 9 0;
#X connect 6 3 8 0;
#X connect 6 4 7 0;
#X connect 12 0 11 0;
#X connect 12 1 13 0;
#X connect 16 0 23 0;
#X connect 17 0 3 0;
#X connect 18 0 20 0;
#X connect 20 0 19 0;
#X connect 20 1 21 0;
#X connect 22 0 4 0;
#X connect 22 1 3 0;
#X connect 23 0 22 0;
#X connect 24 0 5 0;
#X connect 24 1 18 0;
#X connect 24 2 25 0;
#X connect 24 2 27 0;
#X connect 24 3 6 0;
#X connect 26 0 28 0;
#X connect 27 0 26 0;
