#N canvas 216 345 1414 796 12;
#X obj 418 84 inlet;
#X obj 521 81 inlet;
#X text 565 78 directory;
#X obj 205 485 outlet;
#X obj 545 479 soundfiler;
#X text 392 61 segment name;
#X obj 448 388 t a a;
#X floatatom 286 244 5 0 0 0 - - -;
#X obj 384 212 r silence_threshold;
#X obj 286 220 array max;
#X obj 255 271 expr if($f1>$f2 \, 1 \, 0);
#X obj 447 129 t a a;
#X obj 294 198 t b a;
#X obj 433 318 spigot;
#X msg 297 174 symbol \$1;
#X obj 103 287 s max_val;
#X obj 447 366 pack s s f, f 11;
#X msg 206 438 symbol \$2/\$3__\$1.wav;
#X msg 544 457 write -wave \$2/\$3__\$1 \$1;
#X obj 537 318 r 2bars_count;
#X obj 320 316 sel 0;
#X obj 622 562 outlet saved_file;
#X obj 617 525 bng 15 250 50 0 empty empty empty 17 7 0 10 -262144
-1 -1;
#X obj 327 563 outlet sent_empty_segment_message;
#X obj 380 507 bng 15 250 50 0 empty empty empty 17 7 0 10 -262144
-1 -1;
#X connect 0 0 11 0;
#X connect 1 0 16 1;
#X connect 4 1 22 0;
#X connect 6 0 17 0;
#X connect 6 1 18 0;
#X connect 7 0 10 0;
#X connect 7 0 15 0;
#X connect 8 0 10 1;
#X connect 9 0 7 0;
#X connect 10 0 13 1;
#X connect 10 0 20 0;
#X connect 11 0 13 0;
#X connect 11 1 14 0;
#X connect 12 0 9 0;
#X connect 12 1 9 2;
#X connect 13 0 16 0;
#X connect 14 0 12 0;
#X connect 16 0 6 0;
#X connect 17 0 3 0;
#X connect 18 0 4 0;
#X connect 19 0 16 2;
#X connect 20 0 24 0;
#X connect 22 0 21 0;
#X connect 24 0 23 0;
